<?xml version="1.0" encoding="utf-8"?>
<!-- Generator: Adobe Illustrator 19.0.0, SVG Export Plug-In . SVG Version: 6.00 Build 0)  -->
<svg version="1.1" id="Layer_1" xmlns="http://www.w3.org/2000/svg" xmlns:xlink="http://www.w3.org/1999/xlink" x="0px" y="0px"
	 viewBox="0 0 500 500" style="enable-background:new 0 0 500 500;" xml:space="preserve">
<style type="text/css">
	.st0{fill:#0077BE;}
</style>
<g id="XMLID_32_">
	<path id="XMLID_40_" class="st0" d="M232.4,248.3c3.8-2.8,5.2-6.1,5.2-11.3c0-7.1-4.9-15-17.5-15h-19.3v56.6h21.1
		c11.5,0,17.9-7.7,17.9-17.4C239.7,255.9,237.2,250.8,232.4,248.3z M215.3,234.1l4.2,0c2.1,0,4.7,1.7,4.7,4.7c0,2.9-1.9,5.1-4.6,5.1
		h-4.3V234.1z M220.5,265.8h-5.2v-10.9h4.9c3.4,0,5.8,2.4,5.8,5.5C226,263.2,223.6,265.8,220.5,265.8z"/>
	<path id="XMLID_43_" class="st0" d="M168.7,220.2c-16.4,0-29.9,13.4-29.9,29.8c0,16.4,13.4,29.8,29.9,29.8
		c16.4,0,29.8-13.4,29.8-29.8C198.5,233.6,185.1,220.2,168.7,220.2z M168.7,265.1c-8.3,0-15.1-6.8-15.1-15.1
		c0-8.3,6.8-15.1,15.1-15.1c8.3,0,15.1,6.8,15.1,15.1C183.8,258.3,177,265.1,168.7,265.1z"/>
	<path id="XMLID_46_" class="st0" d="M271.1,220.2c-16.4,0-29.9,13.4-29.9,29.8c0,16.4,13.4,29.8,29.9,29.8
		c16.4,0,29.8-13.4,29.8-29.8C300.9,233.6,287.5,220.2,271.1,220.2z M271.1,265.1c-8.3,0-15.1-6.8-15.1-15.1
		c0-8.3,6.8-15.1,15.1-15.1c8.3,0,15.1,6.8,15.1,15.1C286.2,258.3,279.4,265.1,271.1,265.1z"/>
	<path id="XMLID_47_" class="st0" d="M130.9,221.7l-14.4,23.9H95.9V258H110c-2.7,4-6.3,6.8-12.9,6.8c-7.6,0-14.9-5.1-14.9-15.6
		c0-9,7.7-15,14.6-15c5.2,0,11.6,1.6,16,8.8l7.7-12.8c-6.4-6.8-13.5-10-24.5-10c-15.9,0.3-28.4,13.9-28.4,28.6
		c0,17.9,14.4,29.5,28.9,29.5h42.4v-12.7h-17.3l26.4-43.8L130.9,221.7L130.9,221.7z"/>
	<path id="XMLID_49_" class="st0" d="M323.2,279.8c-11.6,0-20.7-6-20.7-18.3v-1.9h14.6c0,3.7,1.7,7.8,6,7.8c3,0,5.6-2.4,5.6-5.5
		c0-3.7-3.1-5-6.1-6.3c-1.7-0.8-3.4-1.5-5.1-2.2c-7.5-3.1-14.1-7.5-14.1-16.5c0-10.7,10.3-16.9,20.1-16.9c5.6,0,11.9,2.1,15.5,6.5
		c3,3.7,3.7,6.8,3.8,11.3h-14.5c-0.5-3.2-1.6-5.6-5.3-5.6c-2.6,0-5,1.8-5,4.5c0,0.9,0.1,1.7,0.5,2.4c1.4,2.3,8.9,5.3,11.3,6.4
		c7.6,3.5,13.4,7.5,13.4,16.5C343.3,274.2,334.5,279.8,323.2,279.8"/>
	<polygon id="XMLID_50_" class="st0" points="395.2,221.7 432.5,221.7 432.5,234.1 421.2,234.1 421.2,278.3 406.5,278.3 
		406.5,234.1 395.2,234.1 	"/>
	<path id="XMLID_56_" class="st0" d="M372.8,221.7l-34.1,56.5h17l4.7-7.8h17.4v7.8h14.7v-56.5L372.8,221.7L372.8,221.7z
		 M377.8,259.7h-10.9l10.9-18V259.7z"/>
</g>
</svg>
